<svg width="992" height="666" viewBox="0 0 992 666" fill="none" xmlns="http://www.w3.org/2000/svg">
<rect y="0.000244141" width="854" height="666" fill="#0D0D0D"/>
<path fill-rule="evenodd" clip-rule="evenodd" d="M853 666H66V502C65.9959 490.242 67.1789 478.494 69.531 466.953C74.0877 444.689 82.9854 423.541 95.716 404.715C114.602 376.741 141.194 354.843 172.271 341.674C182.797 337.225 193.738 333.829 204.933 331.535C216.474 329.182 228.222 327.998 240 328H853V666V666Z" fill="#AFAAC1"/>
<path fill-rule="evenodd" clip-rule="evenodd" d="M854 666H82V502C81.9947 491.211 83.0812 480.407 85.2429 469.795C89.4321 449.314 97.6156 429.86 109.326 412.543C126.693 386.819 151.147 366.682 179.726 354.574C189.405 350.483 199.465 347.36 209.759 345.251C220.37 343.088 231.171 341.998 242 342H854V666V666Z" fill="black"/>
<path fill-rule="evenodd" clip-rule="evenodd" d="M853 666H143V496C142.97 476.873 148.682 458.175 159.399 442.328C169.817 426.894 184.487 414.811 201.632 407.544C213.454 402.541 226.163 399.975 239 400H853V666V666Z" fill="#1E1E1E"/>
<path fill-rule="evenodd" clip-rule="evenodd" d="M833.8 461H400C372.386 461 350 438.614 350 411C350 383.386 372.386 361 400 361H833.8C840.39 360.989 846.917 362.287 853 364.821V457.179C846.917 459.713 840.39 461.012 833.8 461H833.8Z" fill="black"/>
<path fill-rule="evenodd" clip-rule="evenodd" d="M562 414C562 411.515 562.879 409.394 564.636 407.636C566.393 405.879 568.515 405 571 405H668C670.485 405 672.607 405.879 674.364 407.636C676.121 409.394 677 411.515 677 414C677 416.486 676.121 418.607 674.364 420.364C672.607 422.122 670.485 423 668 423H571C568.515 423 566.393 422.122 564.636 420.364C562.879 418.607 562 416.486 562 414V414Z" fill="#2B2B29"/>
<circle cx="723" cy="414" r="17" fill="#171717"/>
<circle cx="723" cy="414" r="16" stroke="#2B2B29" stroke-width="2"/>
<circle cx="723" cy="414" r="6" fill="#232A5E"/>
<path fill-rule="evenodd" clip-rule="evenodd" d="M847 631H191C182.163 631 175 623.837 175 615V573C175 564.164 182.163 557 191 557H847C849.426 556.993 851.82 557.543 854 558.608V629.391C851.821 630.456 849.426 631.007 847 631V631Z" fill="#323234"/>
<path d="M671.528 603.061L676.928 587.509H679.133L671.237 609.145L670.827 610.102C669.813 612.346 668.247 613.469 666.127 613.469C665.638 613.469 665.113 613.389 664.555 613.229L664.538 611.537L665.598 611.64C666.6 611.64 667.409 611.389 668.024 610.888C668.651 610.398 669.181 609.549 669.614 608.342L670.52 605.846L663.547 587.509H665.786L671.528 603.061ZM680.91 596.481C680.91 594.704 681.252 593.103 681.936 591.679C682.631 590.255 683.605 589.15 684.858 588.364C686.123 587.566 687.552 587.167 689.147 587.167C691.608 587.167 693.602 588.033 695.129 589.765C696.656 591.485 697.419 593.77 697.419 596.618V597.045C697.419 598.834 697.071 600.446 696.376 601.882C695.693 603.306 694.724 604.405 693.471 605.18C692.218 605.955 690.788 606.342 689.182 606.342C686.732 606.342 684.738 605.482 683.2 603.761C681.674 602.03 680.91 599.74 680.91 596.891V596.481ZM682.961 597.045C682.961 599.255 683.531 601.073 684.67 602.497C685.821 603.91 687.325 604.616 689.182 604.616C691.027 604.616 692.52 603.91 693.659 602.497C694.81 601.073 695.385 599.198 695.385 596.874V596.481C695.385 595.068 695.123 593.775 694.599 592.602C694.075 591.428 693.34 590.523 692.395 589.885C691.449 589.235 690.367 588.91 689.147 588.91C687.325 588.91 685.838 589.628 684.687 591.064C683.536 592.488 682.961 594.356 682.961 596.669V597.045ZM713.552 603.659C712.321 605.448 710.356 606.342 707.656 606.342C705.685 606.342 704.187 605.772 703.161 604.633C702.136 603.482 701.612 601.785 701.589 599.54V587.509H703.623V599.284C703.623 602.804 705.047 604.565 707.895 604.565C710.857 604.565 712.731 603.34 713.518 600.89V587.509H715.568V606H713.586L713.552 603.659ZM729.445 589.252C729.012 589.172 728.551 589.133 728.061 589.133C726.785 589.133 725.703 589.491 724.814 590.209C723.937 590.916 723.31 591.947 722.934 593.302V606H720.9V587.509H722.9L722.934 590.448C724.016 588.261 725.754 587.167 728.146 587.167C728.716 587.167 729.166 587.241 729.497 587.389L729.445 589.252ZM734.641 587.509L734.709 590.671C735.404 589.531 736.27 588.665 737.307 588.073C738.343 587.469 739.488 587.167 740.742 587.167C742.724 587.167 744.2 587.726 745.168 588.842C746.136 589.959 746.626 591.633 746.638 593.866V606H744.604V593.849C744.593 592.197 744.239 590.967 743.544 590.158C742.861 589.349 741.761 588.945 740.246 588.945C738.981 588.945 737.859 589.343 736.879 590.141C735.911 590.927 735.193 591.992 734.726 593.337V606H732.692V587.509H734.641ZM763.608 606C763.403 605.419 763.272 604.559 763.215 603.42C762.497 604.354 761.58 605.077 760.463 605.59C759.358 606.091 758.185 606.342 756.943 606.342C755.166 606.342 753.724 605.846 752.619 604.855C751.525 603.864 750.979 602.611 750.979 601.095C750.979 599.295 751.725 597.871 753.217 596.823C754.721 595.775 756.812 595.251 759.489 595.251H763.198V593.149C763.198 591.827 762.788 590.79 761.967 590.038C761.158 589.275 759.973 588.893 758.413 588.893C756.988 588.893 755.809 589.258 754.875 589.987C753.941 590.716 753.474 591.594 753.474 592.619L751.423 592.602C751.423 591.132 752.106 589.862 753.474 588.791C754.841 587.708 756.521 587.167 758.515 587.167C760.577 587.167 762.201 587.686 763.386 588.722C764.582 589.748 765.197 591.183 765.231 593.029V601.779C765.231 603.568 765.419 604.906 765.795 605.795V606H763.608ZM757.182 604.531C758.549 604.531 759.768 604.2 760.839 603.539C761.922 602.878 762.708 601.996 763.198 600.89V596.823H759.541C757.501 596.846 755.906 597.222 754.755 597.951C753.605 598.669 753.029 599.66 753.029 600.925C753.029 601.961 753.411 602.822 754.174 603.505C754.949 604.189 755.952 604.531 757.182 604.531ZM772.563 587.509L772.631 590.517C773.315 589.4 774.169 588.563 775.195 588.005C776.22 587.446 777.36 587.167 778.613 587.167C781.529 587.167 783.381 588.364 784.167 590.756C784.828 589.605 785.711 588.722 786.816 588.107C787.921 587.481 789.14 587.167 790.473 587.167C794.438 587.167 796.46 589.332 796.54 593.661V606H794.489V593.815C794.478 592.163 794.119 590.938 793.413 590.141C792.718 589.343 791.578 588.945 789.995 588.945C788.525 588.967 787.283 589.446 786.269 590.38C785.255 591.303 784.691 592.431 784.577 593.764V606H782.526V593.661C782.515 592.078 782.139 590.899 781.398 590.124C780.669 589.338 779.541 588.945 778.015 588.945C776.727 588.945 775.622 589.315 774.699 590.055C773.776 590.785 773.093 591.873 772.648 593.32V606H770.598V587.509H772.563ZM808.896 606.342C807.324 606.342 805.9 605.955 804.624 605.18C803.359 604.405 802.373 603.329 801.667 601.95C800.961 600.56 800.607 599.005 800.607 597.284V596.55C800.607 594.772 800.949 593.171 801.633 591.747C802.328 590.323 803.291 589.207 804.521 588.398C805.751 587.577 807.084 587.167 808.52 587.167C810.764 587.167 812.542 587.936 813.852 589.474C815.174 591.001 815.834 593.092 815.834 595.746V596.891H802.641V597.284C802.641 599.381 803.239 601.13 804.436 602.531C805.643 603.921 807.159 604.616 808.981 604.616C810.075 604.616 811.038 604.417 811.87 604.018C812.713 603.619 813.476 602.981 814.16 602.104L815.441 603.078C813.938 605.254 811.756 606.342 808.896 606.342ZM808.52 588.91C806.982 588.91 805.683 589.474 804.624 590.602C803.575 591.73 802.937 593.246 802.709 595.148H813.801V594.926C813.744 593.149 813.237 591.702 812.28 590.585C811.323 589.469 810.069 588.91 808.52 588.91ZM819.628 604.77C819.628 604.371 819.754 604.035 820.004 603.761C820.266 603.477 820.625 603.334 821.081 603.334C821.537 603.334 821.896 603.477 822.158 603.761C822.42 604.035 822.551 604.371 822.551 604.77C822.551 605.169 822.42 605.499 822.158 605.761C821.896 606.012 821.537 606.137 821.081 606.137C820.625 606.137 820.266 606.012 820.004 605.761C819.754 605.499 819.628 605.169 819.628 604.77ZM832.617 601.745L832.924 603.334L833.334 601.659L837.778 587.509H839.521L843.913 601.54L844.392 603.488L844.785 601.694L848.579 587.509H850.698L845.314 606H843.571L838.82 591.337L838.598 590.329L838.376 591.354L833.71 606H831.967L826.601 587.509H828.703L832.617 601.745ZM866.25 606C866.044 605.419 865.913 604.559 865.856 603.42C865.139 604.354 864.222 605.077 863.105 605.59C862 606.091 860.826 606.342 859.584 606.342C857.807 606.342 856.366 605.846 855.261 604.855C854.167 603.864 853.62 602.611 853.62 601.095C853.62 599.295 854.366 597.871 855.859 596.823C857.363 595.775 859.453 595.251 862.131 595.251H865.839V593.149C865.839 591.827 865.429 590.79 864.609 590.038C863.8 589.275 862.615 588.893 861.054 588.893C859.63 588.893 858.451 589.258 857.517 589.987C856.582 590.716 856.115 591.594 856.115 592.619L854.064 592.602C854.064 591.132 854.748 589.862 856.115 588.791C857.482 587.708 859.163 587.167 861.157 587.167C863.219 587.167 864.842 587.686 866.027 588.722C867.224 589.748 867.839 591.183 867.873 593.029V601.779C867.873 603.568 868.061 604.906 868.437 605.795V606H866.25ZM859.824 604.531C861.191 604.531 862.41 604.2 863.481 603.539C864.563 602.878 865.349 601.996 865.839 600.89V596.823H862.182C860.143 596.846 858.548 597.222 857.397 597.951C856.246 598.669 855.671 599.66 855.671 600.925C855.671 601.961 856.053 602.822 856.816 603.505C857.591 604.189 858.593 604.531 859.824 604.531ZM878.828 603.18L884.45 587.509H886.552L879.648 606H877.99L871.052 587.509H873.154L878.828 603.18ZM892.209 606H890.158V587.509H892.209V606ZM889.799 582.16C889.799 581.773 889.925 581.448 890.175 581.186C890.426 580.912 890.768 580.776 891.201 580.776C891.634 580.776 891.975 580.912 892.226 581.186C892.488 581.448 892.619 581.773 892.619 582.16C892.619 582.547 892.488 582.872 892.226 583.134C891.975 583.396 891.634 583.527 891.201 583.527C890.768 583.527 890.426 583.396 890.175 583.134C889.925 582.872 889.799 582.547 889.799 582.16ZM909.675 603.659C908.444 605.448 906.479 606.342 903.779 606.342C901.808 606.342 900.31 605.772 899.284 604.633C898.259 603.482 897.735 601.785 897.712 599.54V587.509H899.746V599.284C899.746 602.804 901.17 604.565 904.018 604.565C906.98 604.565 908.854 603.34 909.641 600.89V587.509H911.691V606H909.709L909.675 603.659ZM918.886 587.509L918.955 590.517C919.638 589.4 920.493 588.563 921.518 588.005C922.543 587.446 923.683 587.167 924.936 587.167C927.853 587.167 929.704 588.364 930.49 590.756C931.151 589.605 932.034 588.722 933.139 588.107C934.244 587.481 935.463 587.167 936.796 587.167C940.761 587.167 942.784 589.332 942.863 593.661V606H940.812V593.815C940.801 592.163 940.442 590.938 939.736 590.141C939.041 589.343 937.902 588.945 936.318 588.945C934.848 588.967 933.606 589.446 932.592 590.38C931.578 591.303 931.014 592.431 930.9 593.764V606H928.85V593.661C928.838 592.078 928.462 590.899 927.722 590.124C926.993 589.338 925.865 588.945 924.338 588.945C923.05 588.945 921.945 589.315 921.022 590.055C920.1 590.785 919.416 591.873 918.972 593.32V606H916.921V587.509H918.886ZM947.871 604.77C947.871 604.371 947.996 604.035 948.247 603.761C948.509 603.477 948.868 603.334 949.323 603.334C949.779 603.334 950.138 603.477 950.4 603.761C950.662 604.035 950.793 604.371 950.793 604.77C950.793 605.169 950.662 605.499 950.4 605.761C950.138 606.012 949.779 606.137 949.323 606.137C948.868 606.137 948.509 606.012 948.247 605.761C947.996 605.499 947.871 605.169 947.871 604.77ZM963.269 604.616C964.693 604.616 965.883 604.217 966.84 603.42C967.809 602.611 968.333 601.568 968.413 600.292H970.378C970.321 601.42 969.968 602.451 969.318 603.385C968.669 604.308 967.803 605.032 966.721 605.556C965.65 606.08 964.499 606.342 963.269 606.342C960.842 606.342 958.916 605.499 957.492 603.813C956.079 602.127 955.373 599.859 955.373 597.011V596.396C955.373 594.573 955.692 592.961 956.33 591.559C956.968 590.158 957.88 589.076 959.064 588.312C960.261 587.549 961.656 587.167 963.251 587.167C965.279 587.167 966.949 587.771 968.259 588.979C969.58 590.186 970.287 591.776 970.378 593.747H968.413C968.321 592.3 967.797 591.132 966.84 590.243C965.895 589.355 964.698 588.91 963.251 588.91C961.406 588.91 959.97 589.577 958.945 590.91C957.931 592.243 957.424 594.111 957.424 596.515V597.114C957.424 599.472 957.931 601.312 958.945 602.634C959.97 603.955 961.411 604.616 963.269 604.616ZM973.352 596.481C973.352 594.704 973.693 593.103 974.377 591.679C975.072 590.255 976.046 589.15 977.299 588.364C978.564 587.566 979.994 587.167 981.589 587.167C984.05 587.167 986.044 588.033 987.57 589.765C989.097 591.485 989.86 593.77 989.86 596.618V597.045C989.86 598.834 989.513 600.446 988.818 601.882C988.134 603.306 987.166 604.405 985.913 605.18C984.659 605.955 983.229 606.342 981.623 606.342C979.174 606.342 977.18 605.482 975.642 603.761C974.115 602.03 973.352 599.74 973.352 596.891V596.481ZM975.402 597.045C975.402 599.255 975.972 601.073 977.111 602.497C978.262 603.91 979.766 604.616 981.623 604.616C983.469 604.616 984.961 603.91 986.101 602.497C987.251 601.073 987.827 599.198 987.827 596.874V596.481C987.827 595.068 987.565 593.775 987.041 592.602C986.516 591.428 985.782 590.523 984.836 589.885C983.89 589.235 982.808 588.91 981.589 588.91C979.766 588.91 978.279 589.628 977.128 591.064C975.978 592.488 975.402 594.356 975.402 596.669V597.045Z" fill="#84E575"/>
<path d="M223.877 600.362H216.431L214.759 605H212.342L219.129 587.227H221.18L227.979 605H225.574L223.877 600.362ZM217.139 598.433H223.182L220.154 590.12L217.139 598.433ZM240.186 600.362H232.74L231.067 605H228.65L235.438 587.227H237.488L244.288 605H241.883L240.186 600.362ZM233.448 598.433H239.49L236.463 590.12L233.448 598.433Z" fill="white"/>
<path d="M263.353 461.475C262.249 462.559 260.96 463.101 259.485 463.101C257.601 463.101 256.092 462.456 254.959 461.167C253.826 459.868 253.26 458.12 253.26 455.923C253.26 454.527 253.562 453.247 254.168 452.085C254.783 450.913 255.638 450.005 256.731 449.361C257.825 448.706 259.056 448.379 260.423 448.379C261.829 448.379 263.079 448.731 264.173 449.434C265.267 450.137 266.116 451.148 266.722 452.466C267.327 453.784 267.635 455.293 267.645 456.992V458.56C267.645 462.115 266.761 464.907 264.993 466.939C263.226 468.97 260.721 470.054 257.479 470.191L256.438 470.205V466.675L257.376 466.66C261.058 466.494 263.05 464.766 263.353 461.475ZM260.525 459.864C261.209 459.864 261.795 459.688 262.283 459.336C262.781 458.985 263.157 458.56 263.411 458.062V456.319C263.411 454.883 263.138 453.77 262.591 452.979C262.044 452.188 261.312 451.792 260.394 451.792C259.544 451.792 258.846 452.183 258.299 452.964C257.752 453.736 257.479 454.707 257.479 455.879C257.479 457.041 257.742 457.998 258.27 458.75C258.807 459.492 259.559 459.864 260.525 459.864ZM271.058 467.92C271.058 467.246 271.282 466.699 271.731 466.28C272.19 465.86 272.762 465.65 273.445 465.65C274.139 465.65 274.71 465.86 275.159 466.28C275.618 466.699 275.848 467.246 275.848 467.92C275.848 468.584 275.623 469.126 275.174 469.546C274.725 469.956 274.148 470.161 273.445 470.161C272.752 470.161 272.181 469.956 271.731 469.546C271.282 469.126 271.058 468.584 271.058 467.92ZM271.058 455.923C271.058 455.249 271.282 454.702 271.731 454.282C272.19 453.863 272.762 453.653 273.445 453.653C274.139 453.653 274.71 453.863 275.159 454.282C275.618 454.702 275.848 455.249 275.848 455.923C275.848 456.587 275.623 457.129 275.174 457.549C274.725 457.959 274.148 458.164 273.445 458.164C272.752 458.164 272.181 457.959 271.731 457.549C271.282 457.129 271.058 456.587 271.058 455.923ZM291.668 461.973H294.085V465.386H291.668V470H287.435V465.386H278.689L278.499 462.72L287.391 448.672H291.668V461.973ZM282.718 461.973H287.435V454.444L287.156 454.927L282.718 461.973ZM306.653 470H302.42V453.682L297.366 455.249V451.807L306.199 448.643H306.653V470Z" fill="white"/>
<path fill-rule="evenodd" clip-rule="evenodd" d="M482.559 590.829V588.029C482.56 585.328 481.12 582.832 478.781 581.482C476.442 580.131 473.56 580.131 471.222 581.482C468.883 582.833 467.443 585.329 467.444 588.03V590.829H464.959V597.488C464.959 603.034 469.454 607.529 475 607.529C480.545 607.529 485.041 603.034 485.041 597.488V590.829H482.559ZM475.794 600.229V602.701H474.207V600.231C472.811 599.836 471.92 598.471 472.12 597.034C472.32 595.597 473.549 594.527 475 594.527C476.45 594.527 477.679 595.597 477.879 597.034C478.078 598.471 477.188 599.836 475.792 600.231L475.794 600.229ZM480.973 590.829H469.028V588.029C469.028 584.731 471.702 582.057 475 582.057C478.298 582.057 480.972 584.731 480.972 588.029L480.973 590.829Z" fill="#80E770"/>
<path d="M57 66.2102C55.06 66.2102 53.29 65.7602 51.69 64.8602C50.09 63.9402 48.82 62.6702 47.88 61.0502C46.96 59.4102 46.5 57.5702 46.5 55.5302C46.5 53.4902 46.96 51.6602 47.88 50.0402C48.82 48.4002 50.09 47.1302 51.69 46.2302C53.29 45.3102 55.06 44.8502 57 44.8502C58.96 44.8502 60.74 45.3102 62.34 46.2302C63.94 47.1302 65.2 48.3902 66.12 50.0102C67.04 51.6302 67.5 53.4702 67.5 55.5302C67.5 57.5902 67.04 59.4302 66.12 61.0502C65.2 62.6702 63.94 63.9402 62.34 64.8602C60.74 65.7602 58.96 66.2102 57 66.2102ZM57 63.8402C58.46 63.8402 59.77 63.5002 60.93 62.8202C62.11 62.1402 63.03 61.1702 63.69 59.9102C64.37 58.6502 64.71 57.1902 64.71 55.5302C64.71 53.8502 64.37 52.3902 63.69 51.1502C63.03 49.8902 62.12 48.9202 60.96 48.2402C59.8 47.5602 58.48 47.2202 57 47.2202C55.52 47.2202 54.2 47.5602 53.04 48.2402C51.88 48.9202 50.96 49.8902 50.28 51.1502C49.62 52.3902 49.29 53.8502 49.29 55.5302C49.29 57.1902 49.62 58.6502 50.28 59.9102C50.96 61.1702 51.88 62.1402 53.04 62.8202C54.22 63.5002 55.54 63.8402 57 63.8402ZM79.1139 49.2602C81.1139 49.2602 82.7339 49.8702 83.9739 51.0902C85.2139 52.2902 85.8339 54.0302 85.8339 56.3102V66.0002H83.1339V56.7002C83.1339 55.0602 82.7239 53.8102 81.9039 52.9502C81.0839 52.0702 79.9639 51.6302 78.5439 51.6302C77.1039 51.6302 75.9539 52.0802 75.0939 52.9802C74.2539 53.8802 73.8339 55.1902 73.8339 56.9102V66.0002H71.1039V49.5602H73.8339V51.9002C74.3739 51.0602 75.1039 50.4102 76.0239 49.9502C76.9639 49.4902 77.9939 49.2602 79.1139 49.2602ZM105.293 57.1502C105.293 57.6702 105.263 58.2202 105.203 58.8002H92.0634C92.1634 60.4202 92.7134 61.6902 93.7134 62.6102C94.7334 63.5102 95.9634 63.9602 97.4034 63.9602C98.5834 63.9602 99.5634 63.6902 100.343 63.1502C101.143 62.5902 101.703 61.8502 102.023 60.9302H104.963C104.523 62.5102 103.643 63.8002 102.323 64.8002C101.003 65.7802 99.3634 66.2702 97.4034 66.2702C95.8434 66.2702 94.4434 65.9202 93.2034 65.2202C91.9834 64.5202 91.0234 63.5302 90.3234 62.2502C89.6234 60.9502 89.2734 59.4502 89.2734 57.7502C89.2734 56.0502 89.6134 54.5602 90.2934 53.2802C90.9734 52.0002 91.9234 51.0202 93.1434 50.3402C94.3834 49.6402 95.8034 49.2902 97.4034 49.2902C98.9634 49.2902 100.343 49.6302 101.543 50.3102C102.743 50.9902 103.663 51.9302 104.303 53.1302C104.963 54.3102 105.293 55.6502 105.293 57.1502ZM102.473 56.5802C102.473 55.5402 102.243 54.6502 101.783 53.9102C101.323 53.1502 100.693 52.5802 99.8934 52.2002C99.1134 51.8002 98.2434 51.6002 97.2834 51.6002C95.9034 51.6002 94.7234 52.0402 93.7434 52.9202C92.7834 53.8002 92.2334 55.0202 92.0934 56.5802H102.473ZM119.625 63.7802H126.945V66.0002H116.895V45.0902H119.625V63.7802ZM131.254 46.8902C130.734 46.8902 130.294 46.7102 129.934 46.3502C129.574 45.9902 129.394 45.5502 129.394 45.0302C129.394 44.5102 129.574 44.0702 129.934 43.7102C130.294 43.3502 130.734 43.1702 131.254 43.1702C131.754 43.1702 132.174 43.3502 132.514 43.7102C132.874 44.0702 133.054 44.5102 133.054 45.0302C133.054 45.5502 132.874 45.9902 132.514 46.3502C132.174 46.7102 131.754 46.8902 131.254 46.8902ZM132.574 49.5602V66.0002H129.844V49.5602H132.574ZM145.237 49.2602C147.237 49.2602 148.857 49.8702 150.097 51.0902C151.337 52.2902 151.957 54.0302 151.957 56.3102V66.0002H149.257V56.7002C149.257 55.0602 148.847 53.8102 148.027 52.9502C147.207 52.0702 146.087 51.6302 144.667 51.6302C143.227 51.6302 142.077 52.0802 141.217 52.9802C140.377 53.8802 139.957 55.1902 139.957 56.9102V66.0002H137.227V49.5602H139.957V51.9002C140.497 51.0602 141.227 50.4102 142.147 49.9502C143.087 49.4902 144.117 49.2602 145.237 49.2602ZM165.596 66.0002L159.146 58.7402V66.0002H156.416V43.8002H159.146V56.8502L165.476 49.5602H169.286L161.546 57.7502L169.316 66.0002H165.596Z" fill="#0FC65C"/>
<path d="M84.76 179.36H62.52L58.84 190H47.08L67.16 134.08H80.2L100.28 190H88.44L84.76 179.36ZM81.72 170.4L73.64 147.04L65.56 170.4H81.72ZM118.986 181.12H137.386V190H107.786V134.16H118.986V181.12ZM155.704 181.12H174.104V190H144.504V134.16H155.704V181.12ZM244.686 134.16L225.806 170.56V190H214.606V170.56L195.646 134.16H208.286L220.286 159.68L232.206 134.16H244.686ZM270.825 190.72C266.558 190.72 262.718 189.787 259.305 187.92C255.892 186 253.198 183.307 251.225 179.84C249.305 176.374 248.345 172.374 248.345 167.84C248.345 163.307 249.332 159.307 251.305 155.84C253.332 152.374 256.078 149.707 259.545 147.84C263.012 145.92 266.878 144.96 271.145 144.96C275.412 144.96 279.278 145.92 282.745 147.84C286.212 149.707 288.932 152.374 290.905 155.84C292.932 159.307 293.945 163.307 293.945 167.84C293.945 172.374 292.905 176.374 290.825 179.84C288.798 183.307 286.025 186 282.505 187.92C279.038 189.787 275.145 190.72 270.825 190.72ZM270.825 180.96C272.852 180.96 274.745 180.48 276.505 179.52C278.318 178.507 279.758 177.014 280.825 175.04C281.892 173.067 282.425 170.667 282.425 167.84C282.425 163.627 281.305 160.4 279.065 158.16C276.878 155.867 274.185 154.72 270.985 154.72C267.785 154.72 265.092 155.867 262.905 158.16C260.772 160.4 259.705 163.627 259.705 167.84C259.705 172.054 260.745 175.307 262.825 177.6C264.958 179.84 267.625 180.96 270.825 180.96ZM344.001 145.68V190H332.721V184.4C331.281 186.32 329.387 187.84 327.041 188.96C324.747 190.027 322.241 190.56 319.521 190.56C316.054 190.56 312.987 189.84 310.321 188.4C307.654 186.907 305.547 184.747 304.001 181.92C302.507 179.04 301.761 175.627 301.761 171.68V145.68H312.961V170.08C312.961 173.6 313.841 176.32 315.601 178.24C317.361 180.107 319.761 181.04 322.801 181.04C325.894 181.04 328.321 180.107 330.081 178.24C331.841 176.32 332.721 173.6 332.721 170.08V145.68H344.001ZM371.394 162C371.394 156.507 372.62 151.6 375.074 147.28C377.58 142.907 380.967 139.52 385.234 137.12C389.554 134.667 394.38 133.44 399.714 133.44C405.954 133.44 411.42 135.04 416.114 138.24C420.807 141.44 424.087 145.867 425.954 151.52H413.074C411.794 148.854 409.98 146.854 407.634 145.52C405.34 144.187 402.674 143.52 399.634 143.52C396.38 143.52 393.474 144.294 390.914 145.84C388.407 147.334 386.434 149.467 384.994 152.24C383.607 155.014 382.914 158.267 382.914 162C382.914 165.68 383.607 168.934 384.994 171.76C386.434 174.534 388.407 176.694 390.914 178.24C393.474 179.734 396.38 180.48 399.634 180.48C402.674 180.48 405.34 179.814 407.634 178.48C409.98 177.094 411.794 175.067 413.074 172.4H425.954C424.087 178.107 420.807 182.56 416.114 185.76C411.474 188.907 406.007 190.48 399.714 190.48C394.38 190.48 389.554 189.28 385.234 186.88C380.967 184.427 377.58 181.04 375.074 176.72C372.62 172.4 371.394 167.494 371.394 162ZM446.72 152.56C448.16 150.214 450.027 148.374 452.32 147.04C454.667 145.707 457.333 145.04 460.32 145.04V156.8H457.36C453.84 156.8 451.173 157.627 449.36 159.28C447.6 160.934 446.72 163.814 446.72 167.92V190H435.52V145.68H446.72V152.56ZM509.064 166.88C509.064 168.48 508.957 169.92 508.744 171.2H476.344C476.61 174.4 477.73 176.907 479.704 178.72C481.677 180.534 484.104 181.44 486.984 181.44C491.144 181.44 494.104 179.654 495.864 176.08H507.944C506.664 180.347 504.21 183.867 500.584 186.64C496.957 189.36 492.504 190.72 487.224 190.72C482.957 190.72 479.117 189.787 475.704 187.92C472.344 186 469.704 183.307 467.784 179.84C465.917 176.374 464.984 172.374 464.984 167.84C464.984 163.254 465.917 159.227 467.784 155.76C469.65 152.294 472.264 149.627 475.624 147.76C478.984 145.894 482.85 144.96 487.224 144.96C491.437 144.96 495.197 145.867 498.504 147.68C501.864 149.494 504.45 152.08 506.264 155.44C508.13 158.747 509.064 162.56 509.064 166.88ZM497.464 163.68C497.41 160.8 496.37 158.507 494.344 156.8C492.317 155.04 489.837 154.16 486.904 154.16C484.13 154.16 481.784 155.014 479.864 156.72C477.997 158.374 476.85 160.694 476.424 163.68H497.464ZM514.359 167.68C514.359 163.2 515.239 159.227 516.999 155.76C518.812 152.294 521.239 149.627 524.279 147.76C527.372 145.894 530.812 144.96 534.599 144.96C537.905 144.96 540.785 145.627 543.239 146.96C545.745 148.294 547.745 149.974 549.239 152V145.68H560.519V190H549.239V183.52C547.799 185.6 545.799 187.334 543.239 188.72C540.732 190.054 537.825 190.72 534.519 190.72C530.785 190.72 527.372 189.76 524.279 187.84C521.239 185.92 518.812 183.227 516.999 179.76C515.239 176.24 514.359 172.214 514.359 167.68ZM549.239 167.84C549.239 165.12 548.705 162.8 547.639 160.88C546.572 158.907 545.132 157.414 543.319 156.4C541.505 155.334 539.559 154.8 537.479 154.8C535.399 154.8 533.479 155.307 531.719 156.32C529.959 157.334 528.519 158.827 527.399 160.8C526.332 162.72 525.799 165.014 525.799 167.68C525.799 170.347 526.332 172.694 527.399 174.72C528.519 176.694 529.959 178.214 531.719 179.28C533.532 180.347 535.452 180.88 537.479 180.88C539.559 180.88 541.505 180.374 543.319 179.36C545.132 178.294 546.572 176.8 547.639 174.88C548.705 172.907 549.239 170.56 549.239 167.84ZM584.498 154.88V176.32C584.498 177.814 584.844 178.907 585.538 179.6C586.284 180.24 587.511 180.56 589.218 180.56H594.418V190H587.378C577.938 190 573.218 185.414 573.218 176.24V154.88H567.938V145.68H573.218V134.72H584.498V145.68H594.418V154.88H584.498ZM643.673 166.88C643.673 168.48 643.566 169.92 643.353 171.2H610.953C611.22 174.4 612.34 176.907 614.313 178.72C616.286 180.534 618.713 181.44 621.593 181.44C625.753 181.44 628.713 179.654 630.473 176.08H642.553C641.273 180.347 638.82 183.867 635.193 186.64C631.566 189.36 627.113 190.72 621.833 190.72C617.566 190.72 613.726 189.787 610.313 187.92C606.953 186 604.313 183.307 602.393 179.84C600.526 176.374 599.593 172.374 599.593 167.84C599.593 163.254 600.526 159.227 602.393 155.76C604.26 152.294 606.873 149.627 610.233 147.76C613.593 145.894 617.46 144.96 621.833 144.96C626.046 144.96 629.806 145.867 633.113 147.68C636.473 149.494 639.06 152.08 640.873 155.44C642.74 158.747 643.673 162.56 643.673 166.88ZM632.073 163.68C632.02 160.8 630.98 158.507 628.953 156.8C626.926 155.04 624.446 154.16 621.513 154.16C618.74 154.16 616.393 155.014 614.473 156.72C612.606 158.374 611.46 160.694 611.033 163.68H632.073ZM656.808 190.56C654.781 190.56 653.101 189.947 651.768 188.72C650.488 187.44 649.848 185.867 649.848 184C649.848 182.134 650.488 180.587 651.768 179.36C653.101 178.08 654.781 177.44 656.808 177.44C658.781 177.44 660.408 178.08 661.688 179.36C662.968 180.587 663.608 182.134 663.608 184C663.608 185.867 662.968 187.44 661.688 188.72C660.408 189.947 658.781 190.56 656.808 190.56Z" fill="#919191"/>
<path d="M76.64 282.56C71.4133 282.56 66.6133 281.333 62.24 278.88C57.8666 276.427 54.4 273.04 51.84 268.72C49.28 264.347 48 259.413 48 253.92C48 248.48 49.28 243.6 51.84 239.28C54.4 234.907 57.8666 231.493 62.24 229.04C66.6133 226.587 71.4133 225.36 76.64 225.36C81.92 225.36 86.72 226.587 91.04 229.04C95.4133 231.493 98.8533 234.907 101.36 239.28C103.92 243.6 105.2 248.48 105.2 253.92C105.2 259.413 103.92 264.347 101.36 268.72C98.8533 273.04 95.4133 276.427 91.04 278.88C86.6666 281.333 81.8666 282.56 76.64 282.56ZM76.64 272.56C80 272.56 82.96 271.813 85.52 270.32C88.08 268.773 90.08 266.587 91.52 263.76C92.96 260.933 93.68 257.653 93.68 253.92C93.68 250.187 92.96 246.933 91.52 244.16C90.08 241.333 88.08 239.173 85.52 237.68C82.96 236.187 80 235.44 76.64 235.44C73.28 235.44 70.2933 236.187 67.68 237.68C65.12 239.173 63.12 241.333 61.68 244.16C60.24 246.933 59.52 250.187 59.52 253.92C59.52 257.653 60.24 260.933 61.68 263.76C63.12 266.587 65.12 268.773 67.68 270.32C70.2933 271.813 73.28 272.56 76.64 272.56ZM138.092 237.04C143.372 237.04 147.639 238.72 150.892 242.08C154.146 245.387 155.772 250.027 155.772 256V282H144.572V257.52C144.572 254 143.692 251.307 141.932 249.44C140.172 247.52 137.772 246.56 134.732 246.56C131.639 246.56 129.186 247.52 127.372 249.44C125.612 251.307 124.732 254 124.732 257.52V282H113.532V237.68H124.732V243.2C126.226 241.28 128.119 239.787 130.412 238.72C132.759 237.6 135.319 237.04 138.092 237.04ZM207.623 258.88C207.623 260.48 207.516 261.92 207.303 263.2H174.903C175.17 266.4 176.29 268.907 178.263 270.72C180.236 272.533 182.663 273.44 185.543 273.44C189.703 273.44 192.663 271.653 194.423 268.08H206.503C205.223 272.347 202.77 275.867 199.143 278.64C195.516 281.36 191.063 282.72 185.783 282.72C181.516 282.72 177.676 281.787 174.263 279.92C170.903 278 168.263 275.307 166.343 271.84C164.476 268.373 163.543 264.373 163.543 259.84C163.543 255.253 164.476 251.227 166.343 247.76C168.21 244.293 170.823 241.627 174.183 239.76C177.543 237.893 181.41 236.96 185.783 236.96C189.996 236.96 193.756 237.867 197.063 239.68C200.423 241.493 203.01 244.08 204.823 247.44C206.69 250.747 207.623 254.56 207.623 258.88ZM196.023 255.68C195.97 252.8 194.93 250.507 192.903 248.8C190.876 247.04 188.396 246.16 185.463 246.16C182.69 246.16 180.343 247.013 178.423 248.72C176.556 250.373 175.41 252.693 174.983 255.68H196.023ZM246.061 273.12H264.461V282H234.861V226.16H246.061V273.12ZM277.259 232.4C275.286 232.4 273.633 231.787 272.299 230.56C271.019 229.28 270.379 227.707 270.379 225.84C270.379 223.973 271.019 222.427 272.299 221.2C273.633 219.92 275.286 219.28 277.259 219.28C279.233 219.28 280.859 219.92 282.139 221.2C283.473 222.427 284.139 223.973 284.139 225.84C284.139 227.707 283.473 229.28 282.139 230.56C280.859 231.787 279.233 232.4 277.259 232.4ZM282.779 237.68V282H271.579V237.68H282.779ZM318.405 237.04C323.685 237.04 327.952 238.72 331.205 242.08C334.458 245.387 336.085 250.027 336.085 256V282H324.885V257.52C324.885 254 324.005 251.307 322.245 249.44C320.485 247.52 318.085 246.56 315.045 246.56C311.952 246.56 309.498 247.52 307.685 249.44C305.925 251.307 305.045 254 305.045 257.52V282H293.845V237.68H305.045V243.2C306.538 241.28 308.432 239.787 310.725 238.72C313.072 237.6 315.632 237.04 318.405 237.04ZM372.976 282L357.936 263.12V282H346.736V222.8H357.936V256.48L372.816 237.68H387.376L367.856 259.92L387.536 282H372.976Z" fill="white"/>
</svg>
