<svg width="32" height="32" viewBox="0 0 32 32" fill="none" xmlns="http://www.w3.org/2000/svg">
<circle cx="16" cy="16.0002" r="16" fill="#FFD93B"/>
<path fill-rule="evenodd" clip-rule="evenodd" d="M25.793 20.9852C24.1411 24.9316 20.2812 27.5004 16.0029 27.5004C11.7247 27.5004 7.86481 24.9316 6.21295 20.9852C6.05701 20.6265 6.09875 20.2124 6.32324 19.8921C6.54767 19.5717 6.92255 19.3911 7.31293 19.4152C13.0971 19.7821 18.8987 19.7821 24.6829 19.4152C25.0734 19.392 25.4484 19.5721 25.6743 19.8916C25.9001 20.2111 25.9451 20.6246 25.793 20.9852Z" fill="#3E4347"/>
<path fill-rule="evenodd" clip-rule="evenodd" d="M31.5729 16.0002C31.5762 22.6046 27.4123 28.4933 21.1838 30.692C14.9554 32.8907 8.01746 30.9211 3.87335 25.7777C10.0688 30.7758 19.0361 30.2974 24.6647 24.6686C30.2932 19.0398 30.7712 10.0725 25.7729 3.8772C29.4421 6.83154 31.575 11.2894 31.573 16.0002H31.5729Z" fill="#F4C534"/>
<ellipse cx="9.57999" cy="11.7132" rx="5.655" ry="5.66" fill="white"/>
<path fill-rule="evenodd" clip-rule="evenodd" d="M13.629 11.3541C13.6311 12.514 12.9336 13.561 11.8622 14.006C10.7908 14.4509 9.55688 14.2061 8.73657 13.3859C7.9162 12.5656 7.67126 11.3317 8.11609 10.2601C8.56091 9.18872 9.60779 8.49121 10.7679 8.49316C11.5271 8.49182 12.2556 8.79272 12.7925 9.32959C13.3293 9.86646 13.6303 10.595 13.629 11.3541Z" fill="#3E4347"/>
<path fill-rule="evenodd" clip-rule="evenodd" d="M12.413 10.8103C12.218 11.0104 11.813 10.9174 11.508 10.6104C11.203 10.3033 11.108 9.91028 11.308 9.70532C11.508 9.50037 11.908 9.60535 12.213 9.90527C12.518 10.2053 12.617 10.6154 12.413 10.8103Z" fill="white"/>
<ellipse cx="22.42" cy="11.7132" rx="5.655" ry="5.66" fill="white"/>
<path fill-rule="evenodd" clip-rule="evenodd" d="M18.0911 11.3541C18.089 12.514 18.7864 13.561 19.8578 14.006C20.9292 14.4509 22.1631 14.2061 22.9835 13.3859C23.8038 12.5656 24.0488 11.3317 23.604 10.2601C23.1591 9.18872 22.1123 8.49121 20.9521 8.49316C20.193 8.49182 19.4645 8.79272 18.9276 9.32959C18.3907 9.86646 18.0897 10.595 18.0911 11.3541Z" fill="#3E4347"/>
<path fill-rule="evenodd" clip-rule="evenodd" d="M19.307 10.8103C19.502 11.0104 19.907 10.9174 20.212 10.6104C20.517 10.3033 20.612 9.91028 20.412 9.70532C20.212 9.50037 19.812 9.60535 19.507 9.90527C19.202 10.2053 19.099 10.6154 19.307 10.8103Z" fill="white"/>
<path fill-rule="evenodd" clip-rule="evenodd" d="M8.31311 19.4159C8.24609 19.4147 8.1792 19.4198 8.1131 19.4309C9.9201 21.8779 13.2131 22.0129 16.9961 22.0129C20.7791 22.0129 24.0721 21.8779 25.8792 19.4309C25.813 19.42 25.7461 19.4149 25.6791 19.4159C19.8962 19.7826 14.0958 19.7826 8.31293 19.4159H8.31311Z" fill="white"/>
<path fill-rule="evenodd" clip-rule="evenodd" d="M16.9981 27.501C18.5625 27.5024 20.1077 27.1565 21.5221 26.488C21.4662 25.3921 21.0117 24.3542 20.2441 23.5701C19.6376 22.9617 18.7359 22.7552 17.9251 23.0391C17.1608 23.3047 16.3573 23.4399 15.5481 23.439C14.079 23.4478 12.8217 24.4955 12.5481 25.939C12.5192 26.124 12.5021 26.3107 12.4971 26.4979C13.9053 27.1595 15.4423 27.5021 16.9981 27.501Z" fill="#E24B4B"/>
</svg>
