<svg width="788" height="338" viewBox="0 0 788 338" fill="none" xmlns="http://www.w3.org/2000/svg">
<path fill-rule="evenodd" clip-rule="evenodd" d="M787 338H1.52588e-05V174C-0.00405884 162.242 1.17891 150.493 3.53098 138.952C8.08768 116.688 16.9854 95.54 29.716 76.7148C48.6017 48.7407 75.1937 26.8428 106.271 13.6738C116.797 9.22461 127.738 5.82837 138.933 3.53467C150.474 1.1814 162.222 -0.00292969 174 -0.000244141H787V338Z" fill="#AFAAC1"/>
<path fill-rule="evenodd" clip-rule="evenodd" d="M788 338H16V174C15.9947 163.21 17.0812 152.407 19.2429 141.794C23.4321 121.314 31.6156 101.86 43.326 84.5427C60.6927 58.8181 85.147 38.6819 113.726 26.5737C123.405 22.4827 133.465 19.3596 143.759 17.2507C154.37 15.0872 165.171 13.9978 176 13.9998H788V338Z" fill="black"/>
<path fill-rule="evenodd" clip-rule="evenodd" d="M787 338H77V168C76.9697 148.872 82.6825 130.174 93.3987 114.328C103.817 98.8931 118.487 86.8105 135.632 79.5437C147.454 74.5405 160.163 71.9749 173 71.9998H787V338Z" fill="#1E1E1E"/>
<path fill-rule="evenodd" clip-rule="evenodd" d="M767.8 133H334C306.386 133 284 110.614 284 82.9998C284 55.3855 306.386 32.9998 334 32.9998H767.8C774.39 32.988 780.917 34.2869 787 36.8208V129.179C780.917 131.713 774.39 133.011 767.8 133H767.8Z" fill="black"/>
<path fill-rule="evenodd" clip-rule="evenodd" d="M496 85.9998C496 83.5145 496.879 81.3932 498.636 79.6358C500.393 77.8784 502.515 76.9998 505 76.9998H602C604.485 76.9998 606.607 77.8784 608.364 79.6358C610.121 81.3932 611 83.5145 611 85.9998C611 88.485 610.121 90.6064 608.364 92.3637C606.607 94.1211 604.485 94.9998 602 94.9998H505C502.515 94.9998 500.393 94.1211 498.636 92.3637C496.879 90.6064 496 88.485 496 85.9998Z" fill="#2B2B29"/>
<circle cx="657" cy="85.9998" r="17" fill="#171717"/>
<circle cx="657" cy="85.9998" r="16" stroke="#2B2B29" stroke-width="2"/>
<circle cx="657" cy="85.9998" r="6" fill="#232A5E"/>
<path fill-rule="evenodd" clip-rule="evenodd" d="M781 303H125C116.163 303 109 295.836 109 287V245C109 236.163 116.163 229 125 229H781C783.426 228.993 785.82 229.543 788 230.608V301.391C785.821 302.456 783.426 303.006 781 303Z" fill="#323234"/>
<path d="M455.169 276.154L460.928 259.509H463.133L455.306 280.973C455.146 281.395 454.941 281.862 454.69 282.375C454.451 282.887 454.132 283.377 453.733 283.844C453.346 284.323 452.856 284.71 452.264 285.007C451.683 285.314 450.971 285.468 450.127 285.468C449.911 285.468 449.632 285.44 449.29 285.383C448.96 285.337 448.72 285.291 448.572 285.246L448.555 283.52C448.681 283.554 448.863 283.582 449.102 283.605C449.341 283.628 449.507 283.639 449.598 283.639C450.338 283.639 450.959 283.514 451.46 283.263C451.973 283.013 452.4 282.637 452.742 282.135C453.084 281.646 453.386 281.03 453.648 280.29L455.169 276.154ZM449.786 259.509L455.682 275.385L456.229 277.521L454.742 278.359L447.564 259.509H449.786ZM464.927 269.045V268.481C464.927 267.136 465.121 265.894 465.508 264.755C465.896 263.616 466.448 262.63 467.166 261.799C467.895 260.967 468.767 260.323 469.781 259.867C470.795 259.4 471.923 259.167 473.165 259.167C474.418 259.167 475.551 259.4 476.565 259.867C477.579 260.323 478.451 260.967 479.18 261.799C479.909 262.63 480.468 263.616 480.855 264.755C481.242 265.894 481.436 267.136 481.436 268.481V269.045C481.436 270.389 481.242 271.631 480.855 272.77C480.468 273.898 479.909 274.878 479.18 275.71C478.462 276.541 477.597 277.191 476.583 277.658C475.569 278.114 474.441 278.342 473.199 278.342C471.945 278.342 470.812 278.114 469.798 277.658C468.784 277.191 467.912 276.541 467.183 275.71C466.454 274.878 465.896 273.898 465.508 272.77C465.121 271.631 464.927 270.389 464.927 269.045ZM466.961 268.481V269.045C466.961 270.059 467.098 271.021 467.371 271.933C467.645 272.833 468.043 273.636 468.567 274.343C469.091 275.038 469.741 275.584 470.516 275.983C471.29 276.382 472.185 276.581 473.199 276.581C474.201 276.581 475.084 276.382 475.848 275.983C476.622 275.584 477.272 275.038 477.796 274.343C478.32 273.636 478.713 272.833 478.975 271.933C479.249 271.021 479.385 270.059 479.385 269.045V268.481C479.385 267.478 479.249 266.527 478.975 265.627C478.713 264.727 478.314 263.923 477.779 263.217C477.255 262.511 476.605 261.952 475.831 261.542C475.056 261.132 474.167 260.927 473.165 260.927C472.162 260.927 471.273 261.132 470.499 261.542C469.735 261.952 469.086 262.511 468.55 263.217C468.026 263.923 467.627 264.727 467.354 265.627C467.092 266.527 466.961 267.478 466.961 268.481ZM497.518 273.727V259.509H499.568V278H497.603L497.518 273.727ZM497.894 270.309L498.953 270.275C498.953 271.437 498.816 272.508 498.543 273.488C498.27 274.468 497.842 275.322 497.261 276.052C496.68 276.781 495.928 277.345 495.005 277.743C494.083 278.142 492.972 278.342 491.673 278.342C490.773 278.342 489.947 278.216 489.195 277.966C488.454 277.704 487.816 277.293 487.281 276.735C486.745 276.177 486.329 275.453 486.033 274.565C485.748 273.676 485.606 272.599 485.606 271.335V259.509H487.64V271.369C487.64 272.36 487.748 273.186 487.964 273.847C488.192 274.508 488.5 275.038 488.887 275.436C489.286 275.835 489.742 276.12 490.254 276.291C490.767 276.462 491.32 276.547 491.912 276.547C493.416 276.547 494.601 276.257 495.467 275.676C496.344 275.094 496.965 274.331 497.33 273.385C497.706 272.428 497.894 271.403 497.894 270.309ZM506.951 262.568V278H504.917V259.509H506.9L506.951 262.568ZM513.497 259.372L513.445 261.252C513.217 261.218 512.995 261.189 512.779 261.166C512.562 261.143 512.329 261.132 512.078 261.132C511.189 261.132 510.409 261.297 509.737 261.628C509.076 261.947 508.518 262.397 508.062 262.978C507.606 263.547 507.259 264.22 507.02 264.994C506.78 265.758 506.644 266.578 506.609 267.455L505.857 267.746C505.857 266.538 505.983 265.416 506.233 264.379C506.484 263.342 506.866 262.437 507.378 261.662C507.903 260.876 508.558 260.266 509.344 259.833C510.141 259.389 511.076 259.167 512.146 259.167C512.409 259.167 512.665 259.19 512.916 259.235C513.178 259.269 513.371 259.315 513.497 259.372ZM518.743 263.456V278H516.709V259.509H518.658L518.743 263.456ZM518.282 267.609L517.376 267.096C517.444 266.003 517.667 264.977 518.042 264.02C518.418 263.063 518.925 262.22 519.563 261.491C520.213 260.762 520.971 260.192 521.836 259.782C522.714 259.372 523.682 259.167 524.742 259.167C525.665 259.167 526.491 259.292 527.22 259.543C527.949 259.793 528.57 260.192 529.083 260.739C529.595 261.286 529.983 261.987 530.245 262.841C530.518 263.696 530.655 264.738 530.655 265.969V278H528.604V265.951C528.604 264.675 528.427 263.678 528.074 262.961C527.721 262.232 527.22 261.713 526.57 261.406C525.921 261.098 525.152 260.944 524.263 260.944C523.283 260.944 522.423 261.161 521.683 261.594C520.953 262.015 520.338 262.568 519.837 263.251C519.347 263.923 518.971 264.647 518.709 265.422C518.447 266.185 518.305 266.914 518.282 267.609ZM547.198 274.684V265.148C547.198 264.271 547.015 263.513 546.651 262.875C546.286 262.237 545.751 261.747 545.044 261.406C544.338 261.064 543.466 260.893 542.43 260.893C541.473 260.893 540.618 261.064 539.866 261.406C539.126 261.736 538.539 262.186 538.106 262.756C537.684 263.314 537.474 263.935 537.474 264.618L535.423 264.601C535.423 263.906 535.594 263.234 535.936 262.585C536.277 261.935 536.762 261.354 537.388 260.842C538.015 260.329 538.761 259.924 539.627 259.628C540.504 259.321 541.467 259.167 542.515 259.167C543.837 259.167 544.999 259.389 546.001 259.833C547.015 260.278 547.807 260.944 548.377 261.833C548.947 262.721 549.231 263.838 549.231 265.182V274.12C549.231 274.758 549.277 275.419 549.368 276.103C549.471 276.786 549.613 277.35 549.795 277.795V278H547.625C547.488 277.59 547.38 277.077 547.3 276.462C547.232 275.835 547.198 275.243 547.198 274.684ZM547.676 267.233L547.71 268.805H543.694C542.646 268.805 541.706 268.902 540.875 269.096C540.054 269.278 539.359 269.552 538.79 269.916C538.22 270.269 537.781 270.697 537.474 271.198C537.177 271.699 537.029 272.269 537.029 272.907C537.029 273.568 537.194 274.172 537.525 274.719C537.867 275.265 538.345 275.704 538.96 276.034C539.587 276.353 540.328 276.513 541.182 276.513C542.321 276.513 543.324 276.302 544.19 275.881C545.067 275.459 545.791 274.906 546.36 274.223C546.93 273.539 547.312 272.793 547.505 271.984L548.394 273.163C548.246 273.733 547.972 274.32 547.574 274.924C547.186 275.516 546.679 276.074 546.053 276.598C545.426 277.111 544.686 277.533 543.831 277.863C542.988 278.182 542.031 278.342 540.96 278.342C539.752 278.342 538.698 278.114 537.798 277.658C536.91 277.202 536.215 276.581 535.713 275.795C535.223 274.998 534.979 274.098 534.979 273.095C534.979 272.184 535.172 271.369 535.56 270.651C535.947 269.922 536.505 269.307 537.234 268.805C537.975 268.293 538.864 267.905 539.9 267.643C540.949 267.37 542.122 267.233 543.421 267.233H547.676ZM556.648 263.337V278H554.598V259.509H556.563L556.648 263.337ZM556.272 267.609L555.281 267.096C555.35 266.003 555.555 264.977 555.896 264.02C556.25 263.063 556.74 262.22 557.366 261.491C557.993 260.762 558.745 260.192 559.622 259.782C560.499 259.372 561.496 259.167 562.613 259.167C563.513 259.167 564.327 259.292 565.057 259.543C565.797 259.782 566.424 260.164 566.937 260.688C567.461 261.2 567.865 261.873 568.15 262.704C568.435 263.536 568.577 264.533 568.577 265.695V278H566.543V265.763C566.543 264.533 566.35 263.57 565.962 262.875C565.586 262.18 565.057 261.685 564.373 261.388C563.701 261.092 562.92 260.944 562.032 260.944C560.984 260.944 560.095 261.161 559.366 261.594C558.648 262.015 558.061 262.568 557.605 263.251C557.161 263.923 556.831 264.647 556.614 265.422C556.398 266.185 556.284 266.914 556.272 267.609ZM568.56 266.003L567.193 266.037C567.25 265.137 567.455 264.277 567.808 263.456C568.173 262.636 568.668 261.907 569.295 261.269C569.922 260.619 570.668 260.107 571.534 259.731C572.411 259.355 573.396 259.167 574.49 259.167C575.447 259.167 576.302 259.298 577.054 259.56C577.806 259.81 578.438 260.215 578.951 260.773C579.475 261.32 579.874 262.021 580.147 262.875C580.42 263.73 580.557 264.755 580.557 265.951V278H578.506V265.934C578.506 264.624 578.313 263.61 577.925 262.892C577.549 262.163 577.025 261.656 576.353 261.371C575.681 261.087 574.895 260.944 573.995 260.944C573.106 260.955 572.326 261.121 571.653 261.44C570.981 261.747 570.417 262.157 569.961 262.67C569.517 263.171 569.175 263.713 568.936 264.294C568.708 264.875 568.583 265.444 568.56 266.003ZM592.896 278.342C591.688 278.342 590.577 278.119 589.563 277.675C588.561 277.231 587.684 276.604 586.932 275.795C586.191 274.986 585.616 274.029 585.206 272.924C584.807 271.808 584.607 270.588 584.607 269.267V268.532C584.607 267.108 584.818 265.82 585.24 264.67C585.661 263.519 586.242 262.533 586.983 261.713C587.723 260.893 588.567 260.266 589.512 259.833C590.469 259.389 591.472 259.167 592.52 259.167C593.694 259.167 594.736 259.378 595.647 259.799C596.559 260.209 597.322 260.796 597.938 261.559C598.564 262.311 599.037 263.206 599.356 264.242C599.675 265.268 599.834 266.401 599.834 267.643V268.891H585.838V267.148H597.801V266.908C597.778 265.872 597.567 264.903 597.168 264.003C596.781 263.092 596.2 262.351 595.425 261.781C594.651 261.212 593.682 260.927 592.52 260.927C591.654 260.927 590.857 261.109 590.127 261.474C589.41 261.838 588.789 262.363 588.265 263.046C587.752 263.718 587.353 264.522 587.068 265.456C586.795 266.379 586.658 267.404 586.658 268.532V269.267C586.658 270.292 586.806 271.249 587.103 272.138C587.41 273.015 587.843 273.79 588.401 274.462C588.971 275.134 589.643 275.658 590.418 276.034C591.193 276.41 592.047 276.598 592.981 276.598C594.075 276.598 595.044 276.399 595.887 276C596.73 275.59 597.487 274.946 598.16 274.069L599.441 275.06C599.043 275.653 598.541 276.2 597.938 276.701C597.345 277.202 596.633 277.601 595.801 277.897C594.97 278.193 594.001 278.342 592.896 278.342ZM603.68 276.752C603.68 276.353 603.805 276.017 604.056 275.744C604.318 275.459 604.671 275.317 605.115 275.317C605.571 275.317 605.93 275.453 606.192 275.727C606.454 276 606.585 276.342 606.585 276.752C606.585 277.14 606.454 277.47 606.192 277.743C605.93 278.017 605.571 278.154 605.115 278.154C604.671 278.154 604.318 278.017 604.056 277.743C603.805 277.47 603.68 277.14 603.68 276.752ZM617.369 273.676L621.829 259.509H623.265L622.41 263.32L617.745 278H616.309L617.369 273.676ZM612.737 259.509L616.651 273.761L617.488 278H616.001L610.635 259.509H612.737ZM628.819 273.71L632.63 259.509H634.732L629.366 278H627.896L628.819 273.71ZM623.555 259.509L627.947 273.556L629.058 278H627.623L622.854 263.302L622.051 259.509H623.555ZM649.908 274.684V265.148C649.908 264.271 649.725 263.513 649.361 262.875C648.996 262.237 648.461 261.747 647.754 261.406C647.048 261.064 646.176 260.893 645.14 260.893C644.183 260.893 643.328 261.064 642.576 261.406C641.836 261.736 641.249 262.186 640.816 262.756C640.394 263.314 640.184 263.935 640.184 264.618L638.133 264.601C638.133 263.906 638.304 263.234 638.646 262.585C638.987 261.935 639.472 261.354 640.098 260.842C640.725 260.329 641.471 259.924 642.337 259.628C643.214 259.321 644.177 259.167 645.225 259.167C646.547 259.167 647.709 259.389 648.711 259.833C649.725 260.278 650.517 260.944 651.087 261.833C651.657 262.721 651.941 263.838 651.941 265.182V274.12C651.941 274.758 651.987 275.419 652.078 276.103C652.181 276.786 652.323 277.35 652.505 277.795V278H650.335C650.198 277.59 650.09 277.077 650.01 276.462C649.942 275.835 649.908 275.243 649.908 274.684ZM650.386 267.233L650.42 268.805H646.404C645.356 268.805 644.416 268.902 643.584 269.096C642.764 269.278 642.069 269.552 641.5 269.916C640.93 270.269 640.491 270.697 640.184 271.198C639.887 271.699 639.739 272.269 639.739 272.907C639.739 273.568 639.904 274.172 640.235 274.719C640.577 275.265 641.055 275.704 641.67 276.034C642.297 276.353 643.038 276.513 643.892 276.513C645.031 276.513 646.034 276.302 646.9 275.881C647.777 275.459 648.501 274.906 649.07 274.223C649.64 273.539 650.022 272.793 650.215 271.984L651.104 273.163C650.956 273.733 650.682 274.32 650.284 274.924C649.896 275.516 649.389 276.074 648.763 276.598C648.136 277.111 647.396 277.533 646.541 277.863C645.698 278.182 644.741 278.342 643.67 278.342C642.462 278.342 641.408 278.114 640.508 277.658C639.62 277.202 638.925 276.581 638.423 275.795C637.933 274.998 637.688 274.098 637.688 273.095C637.688 272.184 637.882 271.369 638.27 270.651C638.657 269.922 639.215 269.307 639.944 268.805C640.685 268.293 641.574 267.905 642.61 267.643C643.659 267.37 644.832 267.233 646.131 267.233H650.386ZM662.605 276.034L668.536 259.509H670.638L663.716 278H662.229L662.605 276.034ZM657.239 259.509L663.238 276.086L663.562 278H662.059L655.12 259.509H657.239ZM676.277 259.509V278H674.244V259.509H676.277ZM673.885 254.159C673.885 253.772 674.004 253.447 674.244 253.185C674.494 252.912 674.836 252.775 675.269 252.775C675.702 252.775 676.044 252.912 676.294 253.185C676.556 253.447 676.688 253.772 676.688 254.159C676.688 254.535 676.556 254.86 676.294 255.134C676.044 255.396 675.702 255.527 675.269 255.527C674.836 255.527 674.494 255.396 674.244 255.134C674.004 254.86 673.885 254.535 673.885 254.159ZM693.709 273.727V259.509H695.76V278H693.794L693.709 273.727ZM694.085 270.309L695.145 270.275C695.145 271.437 695.008 272.508 694.734 273.488C694.461 274.468 694.034 275.322 693.453 276.052C692.872 276.781 692.12 277.345 691.197 277.743C690.274 278.142 689.163 278.342 687.864 278.342C686.964 278.342 686.138 278.216 685.386 277.966C684.646 277.704 684.008 277.293 683.472 276.735C682.937 276.177 682.521 275.453 682.225 274.565C681.94 273.676 681.797 272.599 681.797 271.335V259.509H683.831V271.369C683.831 272.36 683.939 273.186 684.156 273.847C684.384 274.508 684.691 275.038 685.079 275.436C685.477 275.835 685.933 276.12 686.446 276.291C686.958 276.462 687.511 276.547 688.104 276.547C689.607 276.547 690.792 276.257 691.658 275.676C692.535 275.094 693.156 274.331 693.521 273.385C693.897 272.428 694.085 271.403 694.085 270.309ZM703.04 263.337V278H700.989V259.509H702.955L703.04 263.337ZM702.664 267.609L701.673 267.096C701.741 266.003 701.946 264.977 702.288 264.02C702.641 263.063 703.131 262.22 703.758 261.491C704.384 260.762 705.136 260.192 706.014 259.782C706.891 259.372 707.888 259.167 709.004 259.167C709.904 259.167 710.719 259.292 711.448 259.543C712.189 259.782 712.815 260.164 713.328 260.688C713.852 261.2 714.257 261.873 714.542 262.704C714.826 263.536 714.969 264.533 714.969 265.695V278H712.935V265.763C712.935 264.533 712.741 263.57 712.354 262.875C711.978 262.18 711.448 261.685 710.765 261.388C710.092 261.092 709.312 260.944 708.423 260.944C707.375 260.944 706.486 261.161 705.757 261.594C705.04 262.015 704.453 262.568 703.997 263.251C703.553 263.923 703.222 264.647 703.006 265.422C702.789 266.185 702.675 266.914 702.664 267.609ZM714.952 266.003L713.584 266.037C713.641 265.137 713.847 264.277 714.2 263.456C714.564 262.636 715.06 261.907 715.687 261.269C716.313 260.619 717.059 260.107 717.925 259.731C718.803 259.355 719.788 259.167 720.882 259.167C721.839 259.167 722.693 259.298 723.445 259.56C724.197 259.81 724.83 260.215 725.342 260.773C725.866 261.32 726.265 262.021 726.539 262.875C726.812 263.73 726.949 264.755 726.949 265.951V278H724.898V265.934C724.898 264.624 724.704 263.61 724.317 262.892C723.941 262.163 723.417 261.656 722.745 261.371C722.072 261.087 721.286 260.944 720.386 260.944C719.498 260.955 718.717 261.121 718.045 261.44C717.373 261.747 716.809 262.157 716.353 262.67C715.909 263.171 715.567 263.713 715.328 264.294C715.1 264.875 714.974 265.444 714.952 266.003ZM731.956 276.752C731.956 276.353 732.081 276.017 732.332 275.744C732.594 275.459 732.947 275.317 733.392 275.317C733.847 275.317 734.206 275.453 734.468 275.727C734.73 276 734.861 276.342 734.861 276.752C734.861 277.14 734.73 277.47 734.468 277.743C734.206 278.017 733.847 278.154 733.392 278.154C732.947 278.154 732.594 278.017 732.332 277.743C732.081 277.47 731.956 277.14 731.956 276.752ZM747.337 276.581C748.203 276.581 749.012 276.422 749.764 276.103C750.527 275.772 751.154 275.288 751.644 274.65C752.145 274.001 752.43 273.209 752.498 272.275H754.446C754.389 273.448 754.03 274.496 753.37 275.419C752.72 276.331 751.866 277.048 750.806 277.573C749.758 278.085 748.602 278.342 747.337 278.342C746.049 278.342 744.91 278.108 743.919 277.641C742.939 277.174 742.119 276.524 741.458 275.693C740.797 274.85 740.296 273.87 739.954 272.753C739.624 271.625 739.458 270.412 739.458 269.113V268.395C739.458 267.096 739.624 265.889 739.954 264.772C740.296 263.644 740.797 262.664 741.458 261.833C742.119 260.99 742.939 260.335 743.919 259.867C744.899 259.4 746.032 259.167 747.32 259.167C748.641 259.167 749.826 259.434 750.875 259.97C751.934 260.505 752.777 261.263 753.404 262.243C754.042 263.223 754.389 264.385 754.446 265.729H752.498C752.441 264.738 752.179 263.884 751.712 263.166C751.245 262.448 750.63 261.895 749.866 261.508C749.103 261.121 748.254 260.927 747.32 260.927C746.272 260.927 745.377 261.132 744.637 261.542C743.896 261.941 743.292 262.494 742.825 263.2C742.369 263.895 742.033 264.692 741.817 265.593C741.6 266.481 741.492 267.415 741.492 268.395V269.113C741.492 270.104 741.595 271.05 741.8 271.95C742.016 272.839 742.352 273.63 742.808 274.325C743.275 275.02 743.879 275.573 744.62 275.983C745.372 276.382 746.277 276.581 747.337 276.581ZM757.437 269.045V268.481C757.437 267.136 757.631 265.894 758.018 264.755C758.405 263.616 758.958 262.63 759.676 261.799C760.405 260.967 761.277 260.323 762.291 259.867C763.305 259.4 764.432 259.167 765.674 259.167C766.928 259.167 768.061 259.4 769.075 259.867C770.089 260.323 770.961 260.967 771.69 261.799C772.419 262.63 772.977 263.616 773.365 264.755C773.752 265.894 773.946 267.136 773.946 268.481V269.045C773.946 270.389 773.752 271.631 773.365 272.77C772.977 273.898 772.419 274.878 771.69 275.71C770.972 276.541 770.106 277.191 769.092 277.658C768.078 278.114 766.95 278.342 765.708 278.342C764.455 278.342 763.322 278.114 762.308 277.658C761.294 277.191 760.422 276.541 759.693 275.71C758.964 274.878 758.405 273.898 758.018 272.77C757.631 271.631 757.437 270.389 757.437 269.045ZM759.471 268.481V269.045C759.471 270.059 759.607 271.021 759.881 271.933C760.154 272.833 760.553 273.636 761.077 274.343C761.601 275.038 762.251 275.584 763.025 275.983C763.8 276.382 764.694 276.581 765.708 276.581C766.711 276.581 767.594 276.382 768.357 275.983C769.132 275.584 769.782 275.038 770.306 274.343C770.83 273.636 771.223 272.833 771.485 271.933C771.758 271.021 771.895 270.059 771.895 269.045V268.481C771.895 267.478 771.758 266.527 771.485 265.627C771.223 264.727 770.824 263.923 770.289 263.217C769.764 262.511 769.115 261.952 768.34 261.542C767.566 261.132 766.677 260.927 765.674 260.927C764.672 260.927 763.783 261.132 763.008 261.542C762.245 261.952 761.596 262.511 761.06 263.217C760.536 263.923 760.137 264.727 759.864 265.627C759.602 266.527 759.471 267.478 759.471 268.481Z" fill="#84E575"/>
<path d="M157.877 272.361H150.431L148.759 277H146.342L153.129 259.226H155.18L161.979 277H159.574L157.877 272.361ZM151.139 270.432H157.182L154.154 262.119L151.139 270.432ZM174.186 272.361H166.74L165.067 277H162.65L169.438 259.226H171.488L178.288 277H175.883L174.186 272.361ZM167.448 270.432H173.49L170.463 262.119L167.448 270.432Z" fill="white"/>
<path d="M197.353 133.474C196.249 134.558 194.96 135.1 193.485 135.1C191.601 135.1 190.092 134.456 188.959 133.167C187.826 131.868 187.26 130.12 187.26 127.923C187.26 126.526 187.562 125.247 188.168 124.085C188.783 122.913 189.638 122.005 190.731 121.36C191.825 120.706 193.056 120.379 194.423 120.379C195.829 120.379 197.079 120.73 198.173 121.433C199.267 122.136 200.116 123.147 200.722 124.466C201.327 125.784 201.635 127.293 201.645 128.992V130.559C201.645 134.114 200.761 136.907 198.993 138.938C197.226 140.969 194.721 142.053 191.479 142.19L190.438 142.205V138.675L191.376 138.66C195.058 138.494 197.05 136.765 197.353 133.474ZM194.525 131.863C195.209 131.863 195.795 131.687 196.283 131.336C196.781 130.984 197.157 130.559 197.411 130.061V128.318C197.411 126.883 197.138 125.769 196.591 124.978C196.044 124.187 195.312 123.792 194.394 123.792C193.544 123.792 192.846 124.182 192.299 124.964C191.752 125.735 191.479 126.707 191.479 127.879C191.479 129.041 191.742 129.998 192.27 130.75C192.807 131.492 193.559 131.863 194.525 131.863ZM205.058 139.92C205.058 139.246 205.282 138.699 205.731 138.279C206.19 137.859 206.762 137.649 207.445 137.649C208.139 137.649 208.71 137.859 209.159 138.279C209.618 138.699 209.848 139.246 209.848 139.92C209.848 140.584 209.623 141.126 209.174 141.546C208.725 141.956 208.148 142.161 207.445 142.161C206.752 142.161 206.181 141.956 205.731 141.546C205.282 141.126 205.058 140.584 205.058 139.92ZM205.058 127.923C205.058 127.249 205.282 126.702 205.731 126.282C206.19 125.862 206.762 125.652 207.445 125.652C208.139 125.652 208.71 125.862 209.159 126.282C209.618 126.702 209.848 127.249 209.848 127.923C209.848 128.587 209.623 129.129 209.174 129.549C208.725 129.959 208.148 130.164 207.445 130.164C206.752 130.164 206.181 129.959 205.731 129.549C205.282 129.129 205.058 128.587 205.058 127.923ZM225.668 133.972H228.085V137.385H225.668V142H221.435V137.385H212.689L212.499 134.719L221.391 120.672H225.668V133.972ZM216.718 133.972H221.435V126.443L221.156 126.927L216.718 133.972ZM240.653 142H236.42V125.681L231.366 127.249V123.806L240.199 120.642H240.653V142Z" fill="white"/>
<path fill-rule="evenodd" clip-rule="evenodd" d="M416.559 262.829V260.029C416.56 257.328 415.12 254.832 412.781 253.481C410.442 252.131 407.56 252.131 405.222 253.481C402.883 254.832 401.443 257.328 401.444 260.029V262.829H398.959V269.488C398.959 275.033 403.454 279.529 409 279.529C414.545 279.529 419.041 275.033 419.041 269.488V262.829H416.559ZM409.794 272.229V274.701H408.207V272.231C406.811 271.835 405.92 270.471 406.12 269.034C406.32 267.597 407.549 266.527 409 266.527C410.45 266.527 411.679 267.597 411.879 269.034C412.078 270.471 411.188 271.835 409.792 272.231L409.794 272.229ZM414.973 262.829H403.028V260.029C403.028 256.73 405.702 254.057 409 254.057C412.298 254.057 414.972 256.73 414.972 260.029L414.973 262.829Z" fill="#80E770"/>
</svg>
