<svg width="37" height="38" viewBox="0 0 37 38" fill="none" xmlns="http://www.w3.org/2000/svg">
<circle cx="18.5" cy="18.5" r="18.5" fill="#FFD93B"/>
<path fill-rule="evenodd" clip-rule="evenodd" d="M18.503 30.392C13.0955 30.3928 8.3764 26.7252 7.04202 21.485C6.97012 21.2172 7.04782 20.9313 7.24542 20.7367C7.44302 20.5421 7.73001 20.4689 7.99673 20.5449C8.26343 20.6208 8.46866 20.8345 8.53403 21.104C9.6937 25.6624 13.7979 28.8531 18.5015 28.8531C23.2051 28.8531 27.3093 25.6624 28.469 21.1039C28.5792 20.6973 28.9955 20.4543 29.4037 20.5585C29.812 20.6626 30.0611 21.0752 29.963 21.485C28.6297 26.7256 23.9105 30.3933 18.503 30.392Z" fill="#3E4347"/>
<path fill-rule="evenodd" clip-rule="evenodd" d="M37 18.5031C37 26.3436 32.0548 33.3341 24.6594 35.9453C17.264 38.5565 9.02585 36.2208 4.10144 30.1167C11.4606 36.0483 22.1078 35.4785 28.7918 28.7952C35.4758 22.1119 36.0469 11.4648 30.116 4.10498C34.4719 7.61487 37.0032 12.9091 37 18.5031Z" fill="#F4C534"/>
<ellipse cx="12.531" cy="15.9252" rx="2.835" ry="3.369" fill="#3E4347"/>
<path fill-rule="evenodd" clip-rule="evenodd" d="M13.808 15.2001C13.5275 15.3618 13.1696 15.2767 12.992 15.0061C12.8142 14.8754 12.7365 14.6478 12.7971 14.4357C12.8577 14.2235 13.0439 14.0714 13.2639 14.0543C13.4839 14.0372 13.6914 14.1588 13.784 14.3591C14.0135 14.5889 14.024 14.9576 13.808 15.2001Z" fill="#5A5F63"/>
<ellipse cx="24.481" cy="15.9252" rx="2.835" ry="3.369" fill="#3E4347"/>
<path fill-rule="evenodd" clip-rule="evenodd" d="M25.756 15.2001C25.4756 15.3618 25.1176 15.2767 24.94 15.0061C24.7622 14.8754 24.6844 14.6478 24.7451 14.4357C24.8057 14.2235 24.9919 14.0713 25.2119 14.0543C25.4319 14.0372 25.6394 14.1588 25.732 14.3591C25.9615 14.5889 25.972 14.9576 25.756 15.2001Z" fill="#5A5F63"/>
</svg>
